<?xml version="1.0" encoding="UTF-8"?>
<svg width="50" height="50" viewBox="0 0 50 50" fill="none" xmlns="http://www.w3.org/2000/svg">
  <circle cx="25" cy="25" r="23" fill="#1E293B" stroke="#4ADE80" stroke-width="2"/>
  <path d="M25 10C25 10 20 15 20 22C20 25 22 28 25 30C28 28 30 25 30 22C30 15 25 10 25 10Z" fill="#4ADE80" stroke="#4ADE80" stroke-width="1"/>
  <path d="M25 30V40" stroke="#4ADE80" stroke-width="2" stroke-linecap="round"/>
  <path d="M20 15C20 15 15 20 15 27C15 30 17 33 20 35" stroke="#4ADE80" stroke-width="1.5" stroke-linecap="round"/>
  <path d="M30 15C30 15 35 20 35 27C35 30 33 33 30 35" stroke="#4ADE80" stroke-width="1.5" stroke-linecap="round"/>
</svg>
